<?xml version="1.0" encoding="UTF-8" standalone="no"?>
<svg
   xmlns:dc="http://purl.org/dc/elements/1.1/"
   xmlns:cc="http://creativecommons.org/ns#"
   xmlns:rdf="http://www.w3.org/1999/02/22-rdf-syntax-ns#"
   xmlns:svg="http://www.w3.org/2000/svg"
   xmlns="http://www.w3.org/2000/svg"
   viewBox="0 0 220.93333 226.72"
   height="226.72"
   width="220.93333"
   xml:space="preserve"
   id="svg2"
   version="1.1"><metadata
     id="metadata8"><rdf:RDF><cc:Work
         rdf:about=""><dc:format>image/svg+xml</dc:format><dc:type
           rdf:resource="http://purl.org/dc/dcmitype/StillImage" /></cc:Work></rdf:RDF></metadata><defs
     id="defs6" /><g
     transform="matrix(1.3333333,0,0,-1.3333333,0,226.72)"
     id="g10"><g
       transform="scale(0.1)"
       id="g12"><path
         id="path14"
         style="fill:#ffffff;fill-opacity:1;fill-rule:evenodd;stroke:none"
         d="M 239.105,1334.19 V 440.141 c 0,-70.653 9.079,-97.84 30.797,-135.629 l 1.227,-2.133 1.351,-2.027 C 398.473,112.281 607.711,0 832.223,0 1056.73,0 1265.98,112.281 1391.97,300.352 l 1.36,2.027 1.22,2.133 c 21.72,37.758 30.8,64.949 30.8,135.629 V 1334.19 H 239.105" /><path
         id="path16"
         style="fill:#0e1e3d;fill-opacity:1;fill-rule:nonzero;stroke:none"
         d="M 1353.94,593.332 V 440.141 c 0,-60.942 -7.07,-75.301 -21.3,-100.032 C 1224.02,177.969 1040.42,71.4219 832.223,71.4219 c -208.2,0 -391.793,106.5471 -500.403,268.6871 -14.211,24.731 -21.297,39.09 -21.297,100.032 v 139.98 227.047 455.612 H 1353.94 V 814.766 Z m 32.09,202.555 V 1294.87 H 278.43 V 440.141 c 0,-64.77 7.793,-85.102 25.57,-116.032 l 0.547,-0.961 0.609,-0.91 C 423.828,145.09 620.855,39.332 832.223,39.332 c 211.367,0 408.407,105.758 527.077,282.906 l 0.61,0.91 0.55,0.961 c 17.77,30.911 25.57,51.231 25.57,116.032 v 102.8 252.946" /><path
         id="path18"
         style="fill:#0e1e3d;fill-opacity:1;fill-rule:evenodd;stroke:none"
         d="m 1393.64,537.879 v -97.738 c 0,-66.653 -8.09,-87.7 -26.58,-119.84 l -0.67,-1.18 -0.76,-1.121 C 1245.54,138.73 1046.13,31.7109 832.223,31.7109 618.313,31.7109 418.918,138.73 298.828,318 l -0.758,1.129 -0.675,1.18 c -18.481,32.16 -26.579,53.203 -26.579,119.832 v 96.57 247.457 518.312 H 1393.64 V 793.73 Z m 17.81,252.531 v 529.88 H 253.012 V 440.141 c 0,-70.602 9.269,-94.461 28.945,-128.7 l 0.988,-1.722 1.098,-1.629 C 407.438,123.891 612.363,13.8984 832.223,13.8984 c 219.857,0 424.797,109.9926 548.197,294.1916 l 1.09,1.629 0.99,1.711 c 19.68,34.218 28.95,58.082 28.95,128.711 v 87.039 263.23" /><path
         id="path20"
         style="fill:#d81144;fill-opacity:1;fill-rule:nonzero;stroke:none"
         d="m 731.309,1031.96 c -18.164,0 -32.907,15.92 -32.907,35.56 0,19.63 14.743,35.55 32.907,35.55 18.168,0 32.894,-15.92 32.894,-35.55 0,-19.64 -14.726,-35.56 -32.894,-35.56 z m 32.132,200.53 0.18,-109.92 c -11.883,11.63 -27.726,18.67 -45.035,18.67 -37.004,0 -67.008,-32.41 -67.008,-72.38 0,-39.99 30.004,-72.395 67.008,-72.395 17.492,0 33.312,7.345 45.254,19.195 v -17.836 h 44.523 l -0.058,234.666 z M 949.07,1037.64 h -41.375 v 147.95 h 28.868 c 12.667,0 22.941,-10.84 22.941,-24.18 0,-13.35 -10.274,-24.16 -22.941,-24.16 h -15.02 v -41.03 h 27.527 c 15.356,0 26.965,-13.05 26.965,-29.23 -0.539,-16.72 -10.273,-28.26 -26.965,-29.35 z m 36.211,84.56 c 11.821,11.63 19.059,27.21 19.059,44.33 0,15.51 -5.68,29.77 -15.578,40.96 -10.317,11.97 -28.567,17.28 -53.242,17.28 H 861.613 V 997.855 h 95.45 c 36.597,0.629 66.047,29.895 66.047,65.605 0,25.97 -8.69,44.49 -37.829,58.74 z M 1205.52,997.676 h 43.23 v 233.074 h -43.23 z m -72.66,57.644 c 0,-13.63 -11.36,-24.68 -25.35,-24.68 -14,0 -25.34,11.05 -25.34,24.68 v 81.88 h -44.04 v -90.57 c 0,-30.67 30.98,-55.528 69.22,-55.528 38.24,0 69.24,24.858 69.24,55.528 v 90.57 h -43.73 z M 490.707,1158.1 c 0,37.06 -29.164,67.09 -65.148,67.09 -1.102,0 -6.129,-0.02 -7.219,-0.08 H 342.555 V 998.016 h 46.004 v 187.924 l 27.437,0.24 c 16.992,0 29.895,-13.3 29.895,-29.72 0,-16.41 -13.774,-29.72 -30.758,-29.72 l -10.684,-0.25 v -54.08 l 45.953,-74.394 h 54.215 l -63.539,94.904 c 28.488,7.17 49.629,33.63 49.629,65.18 z m 50.445,-72.69 c 0,15.3 12.133,27.72 27.106,27.72 14.969,0 27.097,-12.42 27.097,-27.72 z m 26.715,59.47 c -40.496,0 -73.324,-33.98 -73.324,-75.89 0,-41.91 32.84,-75.939 73.332,-75.939 30.914,0 55.027,14.299 67.457,36.709 l -36.016,16.99 c -4.593,-10.14 -15.308,-17.25 -27.808,-17.25 -16.668,0 -30.184,12.66 -30.184,28.28 0,1.01 -0.402,0.6 -0.289,1.58 l 98.008,-0.04 c 0.297,3.1 0.449,6.27 0.426,9.52 0.668,49.1 -31.11,76.04 -71.602,76.04 z m 710.733,85.87 V 997.676 h 43.25 v 233.074 h -43.25" /><path
         id="path22"
         style="fill:#fbc715;fill-opacity:1;fill-rule:evenodd;stroke:none"
         d="m 1140.49,701.465 c 0,-171.176 -138.76,-309.945 -309.924,-309.945 -171.168,0 -309.902,138.769 -309.902,309.945 0,171.16 138.734,309.915 309.902,309.915 171.164,0 309.924,-138.755 309.924,-309.915" /><path
         id="path24"
         style="fill:#ffffff;fill-opacity:1;fill-rule:nonzero;stroke:none"
         d="m 1099.64,607.711 c -0.46,0.687 -0.91,1.359 -1.35,2.019 -0.55,0.821 -1.1,1.649 -1.79,2.692 -2.58,3.867 -4.86,7.258 -5.96,10.258 5.25,-0.52 10.85,-1.059 16.63,-1.289 z m 553.05,-87.02 -0.05,0.118 c -0.36,0.761 -0.87,1.863 -1.11,2.441 -0.33,1.621 -0.56,3.531 -0.82,5.539 l -0.04,0.293 c -0.6,4.828 -1.24,9.816 -3.31,14.68 -3.23,7.539 -10.53,13.109 -18.66,14.718 -0.62,3.352 -2.04,5.821 -2.91,7.071 -5.09,7.347 -12.77,12.469 -18.48,16.258 -1.58,1.05 -3.36,2.242 -4.02,2.8 l -1.56,1.211 c -3.76,2.989 -8.27,4.559 -13.1,4.559 -7.97,0 -16.46,-4.981 -21.63,-11.508 -0.89,2.309 -2.36,7.738 -3.19,10.82 -1.15,4.207 -2.23,8.188 -3.36,11.297 l -0.16,0.434 c -0.14,0.379 -0.29,0.769 -0.49,1.316 -2.11,5.66 -7.05,18.891 -21.85,21.364 -4.01,0.648 -7.99,0.82 -11.53,0.968 -7.18,0.309 -9.95,1.41 -10.91,2 0.18,0.629 0.54,1.649 1.2,3.239 1.33,3.25 2.26,6.05 3.02,9 3.02,10.242 5.13,25.132 2.72,38.179 3.44,-0.5 7.31,-0.859 11.16,-0.859 12.16,0 24.92,2.609 35.92,7.351 l 0.61,0.29 c 21.74,10.562 43.19,34.761 42.07,65.015 l -0.06,0.86 c -2.49,26.164 -17.08,50.918 -44.43,75.371 7.07,1.894 14.71,4.289 21.62,9.082 19.75,13.281 28.3,37.07 23.43,65.269 l -0.43,1.895 c -3.14,14.461 -13.79,15.582 -16.98,15.582 -4.23,0 -8.36,-1.656 -11.59,-4.637 -0.65,-0.605 -1.33,-1.238 -2.05,-1.926 -1.65,-1.574 -3.52,-3.355 -5.06,-4.234 -4.24,-2.504 -10.38,-3.789 -16.92,-5.16 -4.92,-1.028 -10.49,-2.196 -15.9,-4.063 -24.51,-8.449 -39.99,-21.672 -46.02,-39.328 -3.64,-10.703 -2.04,-23.633 4.39,-35.476 l 0.5,-0.86 c 7.5,-11.867 18.06,-21.972 27.39,-30.91 13.21,-12.656 25.69,-24.609 28.25,-39.004 0.43,-2.617 1.24,-7.43 -7.5,-14.031 -3.45,-1.934 -8.24,-2.988 -13.56,-2.988 -7.79,0 -16.54,2.195 -23.4,5.867 l -0.37,0.195 c -10.78,5.391 -21.61,12.629 -32.23,19.727 -17.03,11.386 -34.63,23.156 -55.11,29.843 -9.46,4.133 -19.46,6.164 -28.32,7.95 -11.23,2.285 -21.83,4.433 -29.34,10.324 l -1.06,0.75 c -3.26,2.129 -6.62,4.562 -9.87,6.914 -9.87,7.129 -21.03,15.207 -34.49,18.777 -5.21,1.711 -10.13,2.414 -14.13,2.981 -5.12,0.73 -8.12,1.222 -10.24,2.734 -2.2,1.574 -4.4,3.184 -6.61,4.797 l -0.33,0.254 c -9.22,6.734 -18.75,13.711 -28.9,18.777 -17.03,8.516 -34.5,12.727 -53.69,16.918 -1,0.235 -3.61,3.418 -5.36,5.543 -2.86,3.492 -6.41,7.809 -11.34,11.266 -14.34,11.308 -30.63,21.691 -52.59,21.691 -1.96,0 -3.94,-0.082 -5.67,-0.226 -13.2,-0.883 -24.41,-9.414 -31.72,-15.782 -16.09,-14.093 -33.62,-26.777 -50.57,-39.047 -26.23,-18.976 -53.345,-38.605 -77.048,-64.464 -24.824,-25.703 -33.836,-57.649 -41.789,-85.84 -1.148,-4.063 -2.293,-8.113 -3.543,-12.371 -2.16,-7.774 -4.129,-15.703 -6.054,-23.414 -9.735,-39.129 -18.938,-76.082 -55.496,-99.832 -5.872,-3.809 -9.055,-10.43 -8.313,-17.258 0.754,-6.879 5.449,-12.91 11.953,-15.371 2.891,-1.09 7.918,-2.2 14.024,-2.239 0.214,-4.019 1.718,-7.793 4.355,-10.851 2.57,-2.969 7.402,-6.59 15.867,-6.949 l 0.637,-0.02 c 25.215,0 43.125,14.481 58.586,29.469 5.527,-4.789 12.332,-9.899 21.617,-11.82 l 2.5,-0.469 2.758,0.32 c 9.166,1.27 17.196,2.277 25.226,1.899 7.4,-2.301 14.97,-5.161 22.51,-8 5.76,-2.168 11.71,-4.399 17.78,-6.461 l 3,-0.93 2.63,0.101 c 16.49,0.61 25.74,15.149 29.21,20.622 l 0.67,1.058 0.49,1.149 c 0.55,1.32 0.99,2.632 1.32,3.902 0.01,-0.039 0.02,-0.09 0.04,-0.129 l 1,-3.48 c 2.15,-7.653 4.38,-15.563 9.38,-21.43 4.65,-5.434 10.99,-8.293 18.32,-8.293 0.01,0 0.02,0 0.03,0 2.72,0 5.18,0.383 6.95,0.66 0.31,0.043 0.58,0.09 0.83,0.121 0.26,-0.281 0.52,-0.57 0.77,-0.828 2.88,-3.102 7.22,-7.762 14.33,-9.941 6.69,-2.231 13.45,-4 20.1,-5.743 8.05,-2.109 16.38,-4.277 23.89,-7.207 l 0.85,-0.312 c 5.94,-1.899 12.43,-3.777 19.3,-3.641 10.7,0.043 17.3,4.184 22.84,8.653 9.06,7.328 12.69,15.339 14.74,23.129 1.39,0.199 2.91,0.562 4.95,1.242 11.22,3.718 22.16,24.308 22.27,24.519 0.76,1.469 1.67,2.879 2.45,4.059 2.77,4.191 4.14,8.609 4.08,13.121 -0.15,10.82 -8.54,19.23 -19.39,19.551 l -1.76,0.058 c -0.89,0 -21.96,0.102 -28.03,-0.011 l -0.52,-0.02 c -2.65,-0.148 -5.04,-0.66 -7.25,-1.379 -0.13,0.172 -0.24,0.352 -0.38,0.52 -1.62,1.98 -3.34,6.492 -5.65,7.629 0.17,0.152 0.64,0.281 0.81,0.421 l 5.89,-0.628 c 3.76,-0.372 7.62,-0.571 11.47,-0.571 13.4,0 25.58,2.199 37.38,4.328 10.38,1.871 20.83,0.852 31.32,0.852 1.06,0 2.14,-0.02 3.24,-0.063 l 0.58,-0.007 c 4.52,0 9.03,-0.411 13.93,-0.84 4.91,-0.449 10.47,-0.949 16.18,-0.949 2.06,0 4,0.058 5.92,0.187 5.51,0.262 10.7,1.199 15.43,2.731 0.45,-2.622 1.05,-5.84 1.83,-9.84 l 0.76,-3.301 c 2.73,-11.797 6.85,-29.629 28.01,-43.367 l 3.17,-2.071 c 9.82,-6.453 15.73,-10.32 30.44,-12.543 3.76,-0.578 10.8,-0.429 15.25,0.653 18.48,4 39.14,-0.832 55.67,-12.879 l 1.45,-0.922 c 1.33,-0.762 3.17,-2.32 5,-3.871 3.81,-3.207 8.54,-7.207 14.91,-9.57 4.16,-1.649 8.65,-2.508 13.38,-2.539 0.1,0 0.21,0 0.32,0 9.05,0 14.01,2.761 17.64,4.789 0.01,0.011 0.03,0.023 0.06,0.043 0.59,-0.801 1.22,-1.692 1.78,-2.461 2.6,-3.641 5.82,-8.172 10.5,-12.461 8.94,-8.551 20.07,-9.551 27.67,-9.551 3.58,0 7.01,0.25 10.01,0.461 1.09,0.082 2.27,0.14 3.39,0.191 2.11,0.09 4.07,0.199 5.36,0.36 2.24,0.257 3.73,0.578 4.47,0.769 3.92,-2.859 8.04,-3.262 9.9,-3.262 1.58,0 3.17,0.223 4.72,0.684 l 17.55,5.758 c 4.98,1.551 9,5.148 11.01,9.75 3.78,8.5 0.04,16.512 -2.69,22.351" /><path
         id="path26"
         style="fill:#ffffff;fill-opacity:1;fill-rule:nonzero;stroke:none"
         d="m 581.758,625.93 c -0.711,-0.668 -1.449,-1.34 -2.195,-2.02 -4.09,-3.738 -9.297,-8.5 -13.352,-14.539 -2.918,4.918 -4.867,8.52 -6.441,11.82 6.679,0.957 13.351,3 18.742,5.368 1.16,0.031 2.312,0.082 3.457,0.16 -0.074,-0.27 -0.145,-0.528 -0.211,-0.789 z m 214.836,-41.301 -9.215,4.601 c -7.945,4.809 -13.242,13.711 -18.887,23.18 -2.652,4.449 -5.394,9.051 -8.402,13.27 -2.871,4.199 -6.895,7.8 -10.133,10.711 -0.578,0.507 -1.324,1.179 -1.937,1.75 -9.895,27.168 -20.383,58.839 -22.942,93.304 -0.644,8.602 -5.648,23.309 -11.152,32.793 l -0.188,0.313 c -15.715,25.605 -52.23,68.105 -54.351,70.359 -1.379,1.457 -2.883,2.93 -4.192,4.219 l -0.961,0.937 -65.019,54.098 -0.981,0.746 c -13.707,9.602 -18.66,11.813 -29.316,15.68 -16.711,6.062 -39.965,5.215 -56.746,-1.985 l -1.098,-0.519 c -5.633,-2.984 -10.875,-6.328 -15.984,-9.598 -7.762,-4.961 -15.094,-9.64 -22.539,-12.129 l -1.383,-0.535 c -6.348,-2.847 -13.633,-5.101 -20.68,-7.285 -15.371,-4.754 -32.793,-10.141 -47.195,-23.355 -3.527,-3.243 -6.418,-5.965 -8.848,-8.262 -3.476,-3.281 -6.773,-6.387 -8.14,-7.305 -0.387,-0.039 -1.188,-0.086 -2.797,-0.086 -24.348,0 -42.442,-6.301 -60.516,-21.054 l -0.597,-0.52 c -11.012,-10.008 -21.844,-19.316 -33.258,-23.281 -4.703,-1.629 -10.625,-2.313 -17.141,-2.957 l -0.652,-0.059 c -10.895,-0.961 -13.281,-1.211 -23.821,-3.722 -18.496,-4.266 -36.414,-18.204 -50.808,-29.403 -6.383,-4.961 -10.504,-8.058 -12.262,-9.199 -1.265,-0.832 -2.82,-1.801 -4.066,-2.531 -15.824,-9.258 -29.489,-17.246 -45.953,-17.246 l -0.821,0.011 c -9.011,0.789 -17.461,7.071 -20.328,15.098 -2.711,10.457 0.477,20.879 8.985,29.395 5.488,5.488 11.976,11.003 18.253,16.347 11.153,9.481 21.684,18.445 29.575,29.039 12.336,16.543 11.07,42.406 -2.809,57.629 -10.656,11.703 -29.125,17.383 -43.988,21.02 l -1.254,0.308 c -0.715,0.18 -1.703,0.367 -2.692,0.524 l -0.867,0.164 c -1.675,0.328 -3.328,0.621 -4.961,0.914 -2.863,0.508 -5.5661,0.984 -8.152,1.617 -5.0859,1.434 -10.3047,5.043 -15.8242,8.863 -3.9414,2.723 -8.0078,5.535 -12.5664,7.996 l -12.0821,6.504 -7.496,-11.496 c -5.6954,-8.726 -8.0704,-18.48 -7.2657,-29.801 l 0.0782,-0.824 c 2.6054,-20.445 18.8359,-41.844 38.5937,-50.855 l 0.4492,-0.196 c 0.7031,-0.293 1.4141,-0.578 2.125,-0.839 4.5703,-1.907 9.0664,-2.735 13.2539,-3.086 C 83.957,818.934 73.293,809.402 63.9648,797.969 45.7656,777.91 44.6797,745.367 53.0117,723.563 63.6445,694.98 92.4219,679.051 116.313,675.922 c 4.175,-0.652 8.335,-0.973 12.703,-0.973 7.464,0 14.636,0.992 21.425,2.332 0,-0.09 0.004,-0.179 0.008,-0.269 0.492,-10.762 0.832,-17.571 1.621,-21.742 1.7,-8.981 5.762,-18.911 8.45,-25.489 0.089,-0.222 0.179,-0.441 0.269,-0.652 -5.324,-3.367 -13.16,-6.547 -16.203,-7.34 -4.215,-0.5 -8.785,-0.75 -12.148,-0.918 -2.344,-0.133 -4.192,-0.25 -5.153,-0.351 -5.015,-0.59 -9.558,-2.731 -13.172,-6.219 -4.625,-4.492 -7.394,-11.59 -11.226,-21.403 -1.528,-3.918 -3.1097,-7.957 -4.6253,-11.269 -1.2578,-1.91 -3.0078,-3.641 -5.0586,-5.258 -2.6054,4.688 -6.8593,8.098 -9.5508,10.25 l -0.0195,0.02 -0.4336,0.328 c -6.7344,5.402 -17.0859,5.582 -24.5547,0.472 -1.1093,-0.75 -2.2226,-1.492 -3.332,-2.23 l -0.8945,-0.59 C 49.7109,581.5 44.3789,577.98 38.7305,573.238 35.0039,570.141 32.3008,565.441 31.0742,560.25 29.75,560.059 28.4336,559.738 27.1406,559.23 18.2852,555.582 8.24609,545.211 7.46094,534.801 7.17969,531.012 6.66406,524.109 6.13281,522.148 5.99219,521.969 5.72266,521.648 5.21484,521.082 -0.804688,514.371 -2.57422,502.371 5.10938,494.66 10.3125,489.449 30.3906,484.07 34.332,484.07 h 0.9727 l 2.4726,0.321 1.125,0.328 c 1.2735,0.39 2.4063,0.851 3.4415,1.41 l 4.6406,-0.43 c 2.4492,-0.211 5.2656,-0.828 8.6601,-1.551 5.2735,-1.136 11.2539,-2.437 17.6875,-2.437 6.875,0 13.1875,1.519 18.7774,4.527 10.1326,4.871 15.1526,13.5 18.8436,19.844 1.055,1.816 2.137,3.68 3.188,5.148 0.57,-0.14 1.152,-0.289 1.66,-0.429 2.75,-0.731 6.176,-1.641 9.996,-1.86 16.308,-0.89 30.586,8.34 37.625,13.93 2.777,2.188 5.41,4.66 7.805,6.891 2.664,2.488 5.41,5.058 7.816,6.726 2.484,1 5.852,1.512 10.02,1.512 7.066,0 15.16,-1.488 21.757,-2.73 14.297,-3.61 29.621,-1.899 41.176,4.64 6.223,3.531 12.477,6.801 17.516,9.442 l 0.851,0.449 c 2.75,1.449 5.184,2.73 7.133,3.789 11.723,6.441 20.57,20.441 25.945,31.082 2.625,5.219 6.582,14.957 7.672,17.668 1.071,-0.059 2.172,-0.09 3.305,-0.09 0.008,0 0.016,0 0.02,0 7.671,0 15.683,1.262 22.757,2.391 4.875,0.757 9.485,1.488 13,1.66 l 0.618,0.039 c 1.371,0.109 2.796,0.18 4.23,0.18 7.062,0 17.34,-0.848 25.035,-1.7 6.449,-0.711 10.817,-1.332 19.32,-1.738 1.149,-0.043 2.387,-0.152 3.688,-0.262 2.699,-0.211 5.762,-0.461 9.082,-0.461 8.645,0 15.699,2.051 21.492,4.903 1.645,-1.602 4.348,-5.41 6.164,-6.953 -0.273,0 -0.531,-0.008 -0.804,-0.008 -5.543,0 -10.625,-2.242 -14.137,-5.992 -4.805,2.32 -12.735,2.32 -20,1.722 -8.57,-0.691 -16.317,-1.961 -24.942,-3.812 -6.41,-1.36 -11.117,-4.489 -13.757,-10.34 -2.715,-6.027 -2.34,-12.949 1.035,-18.938 4.445,-7.941 8.722,-15.121 13.25,-22.711 l 1.992,-3.351 c 2.082,-3.488 7.191,-9.34 18.051,-9.34 1.343,0 2.816,0.09 4.461,0.199 0.148,0.012 0.304,0.024 0.457,0.032 0.277,-0.5 0.562,-1 0.843,-1.52 3.258,-5.871 7.297,-13.16 14.551,-18.879 7.266,-6.23 17.332,-9.789 27.696,-9.789 4.582,0 9.058,0.668 13.3,2.008 19.625,6.148 38.809,12.5 57.493,22.07 h 2.449 l 1.523,0.078 c 1.203,0.121 2.43,0.211 3.668,0.313 7.5,0.551 18.832,1.379 27.516,10.531 l 0.808,0.848 0.664,0.961 c 3.411,4.961 6.547,9.918 9.465,14.961 0.137,-0.582 0.293,-1.192 0.489,-1.813 l 0.132,-0.398 c 4.414,-12.942 17.703,-18.731 28.93,-18.731 0.004,0 0.008,0 0.016,0 l 0.652,0.02 c 12.715,0.558 23.766,4.558 33.516,8.082 l 0.668,0.25 c 1.375,0.476 2.75,0.976 4.16,1.476 l 0.969,0.383 c 7.382,3.18 18.16,3.731 31.171,1.609 l 1.668,-0.269 1.692,0.109 c 13.711,0.871 24.281,7.52 33.008,14.59 16.546,-17.441 37.546,-26.281 62.441,-26.281 0.906,0 1.824,0.012 2.785,0.043 l 4.055,0.289 1.125,0.258 c 8.133,1.922 13.633,8.113 14.347,16.152 0.149,1.59 0.079,3.149 -0.179,4.66 1.515,0.168 3,0.41 4.453,0.739 7.695,1.699 13.43,7.66 14.601,15.199 1.254,8.113 -2.39,15.351 -9.511,18.91" /><path
         id="path28"
         style="fill:#d81144;fill-opacity:1;fill-rule:nonzero;stroke:none"
         d="m 477.473,566.609 c -0.45,0.762 -0.957,1.621 -1.461,2.711 -1.508,2.91 -2.379,5.95 -3.145,8.629 -1.543,5.383 -2.847,10 -8.637,9.172 -8.273,-1.191 -16.281,-1.742 -25.21,-1.742 -0.118,0 -2.911,-0.02 -3.77,-1.957 -0.992,-2.262 1.266,-4.34 3.648,-6.543 1.356,-1.238 2.754,-2.527 3.731,-3.938 1.656,-2.402 3.238,-5.902 4.769,-9.281 2.422,-5.351 4.512,-9.98 6.981,-10.75 1.004,-0.308 2.16,-0.469 3.441,-0.469 5.582,0 13.348,3.028 18.914,7.368 3.153,2.671 2.137,4.402 0.739,6.8" /><path
         id="path30"
         style="fill:#d81144;fill-opacity:1;fill-rule:nonzero;stroke:none"
         d="m 74.3281,574.969 -0.4492,0.363 c -1.6953,1.348 -4.7969,1.168 -6.8633,-0.242 -1.4375,-0.981 -2.8789,-1.93 -4.3203,-2.879 -4.5976,-3.051 -9.3594,-6.199 -14.3945,-10.41 -1.8164,-1.531 -2.8164,-4.449 -3.0039,-6.672 -0.1446,-1.758 0.1719,-3.199 0.9062,-4.059 0.418,-0.468 4.0742,-4.558 4.8633,-5.199 1.1992,-1 3.1172,-2.332 5.8516,-2.332 1.5547,0 3.2109,0.441 4.9297,1.301 8.8789,4.48 18.0898,20.98 18.4414,21.949 0.9648,2.66 -2.0899,5.09 -5.961,8.18" /><path
         id="path32"
         style="fill:#d81144;fill-opacity:1;fill-rule:nonzero;stroke:none"
         d="m 34.332,499.77 v 0 -0.02 z M 45,535.859 c -1.832,2.602 -7.9141,9.723 -11.3437,9.723 -0.3008,0 -0.5782,-0.043 -0.8399,-0.152 -4.7148,-1.95 -10.1992,-8.09 -10.4766,-11.739 -1.1914,-16 -1.6406,-17.679 -6.0156,-22.57 -1.2265,-1.359 -2.0625,-4.512 -0.6679,-5.922 1.2148,-1.211 16.9414,-6.211 18.6757,-6.211 l 0.3516,0.051 c 1.4219,0.41 2.5664,4.02 5.75,15.043 1.7148,5.938 3.6602,12.68 5.8281,18.77 0.1406,0.386 0.1758,0.98 -1.2617,3.007" /><path
         id="path34"
         style="fill:#d81144;fill-opacity:1;fill-rule:nonzero;stroke:none"
         d="m 696.387,658.949 c -0.625,-3.969 -1.563,-5.89 -2.094,-6.82 -0.531,-0.938 -1.438,-3.027 -4.375,-3.039 -3.227,-0.02 -2.984,3.789 -3.02,4.308 0,0 -0.382,10.524 -2.402,14.973 -2.191,4.828 -12.793,18.438 -18.898,17.867 -1.551,-0.136 -5.535,-2.519 -8.508,-6.386 -3.598,-4.672 -3.582,-5.231 -4.692,-5.954 -1.109,-0.707 -2.543,-0.328 -3.027,2.422 -0.488,2.75 -0.976,5 0.301,10.262 1.289,5.27 2.57,6.406 4.113,10.188 0,0 3.192,7.359 4.395,9.187 3.281,4.981 7.687,4.656 7.687,4.656 1.188,-0.078 4.961,0.422 9.028,-4.675 4.707,-5.899 3.699,-5.364 5.023,-7.45 1.32,-2.09 2.719,-4.25 6.609,-8.476 3.899,-4.242 8.196,-12.5 9.375,-17.621 1.176,-5.129 1.11,-9.469 0.485,-13.442 z m -29.332,-67.41 c 0,0 -0.512,-4.859 -2.793,-6.93 -2.274,-2.058 -10.449,-3.211 -14.731,-3.039 -4.289,0.168 -5.765,0.762 -6.668,2.09 -1.008,1.481 0.625,4.371 0.625,4.371 0.516,1.059 5.567,11.508 15.672,14.231 0,0 3.274,1.207 6.367,-0.332 3.094,-1.532 1.653,-9.289 1.528,-10.391 z M 559.27,762.332 c -0.352,-1.25 -1.129,-2.07 -1.981,-2.07 -0.379,0 -1.281,0.176 -1.601,1.789 -3.352,17.137 -5.383,25.574 -9.286,33.476 -1.265,2.539 -2.808,4.657 -4.175,6.532 -2.875,3.933 -5.364,7.336 -2.571,11.925 0.828,1.356 2.879,2.266 5.114,2.266 1.089,0 2.128,-0.227 3.007,-0.637 3.309,-1.57 6.52,-5.578 9.832,-12.246 8.274,-16.902 1.727,-40.793 1.661,-41.035 z M 789.918,571.289 c -4.457,2.223 -9.688,4.832 -9.688,4.832 -11.48,6.699 -18.105,17.82 -24.511,28.59 -2.516,4.211 -5.117,8.57 -7.946,12.539 -1.851,2.719 -4.996,5.531 -7.769,8.012 -2.422,2.168 -4.707,4.218 -5.121,5.34 -10.485,28.636 -21.91,62.32 -24.688,99.73 -0.429,5.742 -4.437,18.25 -9.168,26.406 -14.898,24.278 -50.539,65.86 -52.488,67.93 -1.238,1.309 -2.598,2.637 -3.762,3.777 l -0.964,0.938 -64.133,53.305 c -12.762,8.929 -16.657,10.539 -25.856,13.878 -5.89,2.133 -12.863,3.266 -20.172,3.266 -9.082,0 -18.156,-1.742 -25.593,-4.937 -5.106,-2.7 -10.09,-5.883 -14.911,-8.957 -8.191,-5.243 -16.668,-10.657 -25.871,-13.731 -7.164,-3.215 -14.898,-5.605 -22.379,-7.922 -14.55,-4.5 -29.593,-9.16 -41.515,-20.097 -3.465,-3.184 -6.309,-5.86 -8.692,-8.106 -11,-10.391 -12.152,-11.473 -21.183,-11.473 -20.891,0 -35.68,-5.117 -51.074,-17.687 -12.204,-11.094 -24.321,-21.453 -38.407,-26.336 -6.312,-2.199 -13.308,-3 -20.73,-3.742 -10.66,-0.926 -12.301,-1.035 -22.418,-3.446 -15.211,-3.507 -31.332,-16.007 -45,-26.64 -4.469,-3.477 -10.457,-8.086 -13.277,-9.922 -1.457,-0.949 -3.247,-2.063 -4.68,-2.902 -16.961,-9.922 -32.981,-19.297 -53.488,-19.297 -0.512,0 -1.032,0 -1.508,0.019 -15.297,1.086 -29.2502,11.66 -33.9221,25.657 -4.3164,15.761 0.3164,31.902 12.7151,44.296 5.914,5.918 12.636,11.641 19.136,17.168 10.493,8.922 20.407,17.352 27.282,26.59 7.992,10.723 7.113,28.801 -1.875,38.664 -8.965,9.836 -29,14.739 -36.539,16.582 l -1.309,0.321 c -0.742,0.183 -2.082,0.336 -2.785,0.511 -4.785,0.934 -9.3438,1.59 -14.0157,2.743 -11.9258,3.25 -21.1445,12.464 -31.711,18.156 -4.0664,-6.235 -5.4179,-13.012 -4.8789,-20.594 2.0235,-15.926 15.2657,-32.445 29.9805,-39.164 0.6211,-0.266 1.2461,-0.512 1.8828,-0.734 4.6563,-2 9.5586,-2.278 14.1643,-2.278 0.988,0 1.98,0.012 2.972,0.031 0.993,0.012 1.977,0.02 2.965,0.02 2.852,0 6.231,0.02 9.336,-0.781 2.856,-0.742 5.817,-3.563 6.215,-7.168 0.238,-2.11 -0.715,-3.738 -3.402,-5.84 -2.477,-2.078 -4.973,-4.141 -7.477,-6.199 C 99,812.176 85.9102,801.355 75.2695,788.211 61.0156,772.82 60.3711,746.094 66.9961,728.758 75.4883,705.926 98.957,693.18 118.43,690.691 c 3.476,-0.55 6.937,-0.82 10.586,-0.82 11.468,0 22.398,2.77 32.976,5.43 0.391,0.097 0.719,0.148 1,0.148 0.488,0 1.399,0 1.563,-2.429 0.324,-4.719 0.562,-10.071 0.797,-15.25 0.386,-8.418 0.742,-16.372 1.382,-19.719 1.414,-7.492 5.129,-16.602 7.59,-22.61 1.047,-2.562 1.871,-4.57 2.156,-5.582 0.961,-3.418 0.075,-7.129 -2.218,-9.23 -8.028,-7.348 -24.328,-13.207 -27.324,-13.59 -4.833,-0.609 -9.969,-0.879 -13.719,-1.07 -1.91,-0.098 -3.418,-0.188 -4.215,-0.278 -1.781,-0.203 -3.258,-0.902 -4.5,-2.109 -2.293,-2.211 -4.809,-8.652 -7.719,-16.102 -1.75,-4.48 -3.558,-9.121 -5.383,-12.98 -5.101,-8.5 -13.6911,-13.469 -22.0036,-18.281 -2.0781,-1.199 -4.1406,-2.387 -6.1328,-3.629 l -0.2422,-0.238 c -3.4179,-5.411 -6.8476,-10.582 -11.2304,-14.454 -3.4219,-3.168 -7.8086,-3.91 -12.0039,-4.41 l -0.293,-0.019 -0.1953,-0.231 c -6.457,-7.429 -8.5547,-17.297 -10.5781,-26.847 -0.3086,-1.469 -0.6211,-2.922 -0.9493,-4.391 l -0.2734,-1.359 0.8516,-0.082 c 3.3906,-0.309 6.8203,-1.047 10.4531,-1.829 4.7656,-1.039 9.6953,-2.101 14.5273,-2.101 4.5703,0 8.5157,0.961 12.0039,2.91 6.2032,2.852 9.5118,8.531 12.711,14.031 2.1011,3.621 4.2731,7.36 7.2731,10.262 1.758,1.906 3.852,2.809 6.586,2.809 2.41,0 5.067,-0.711 7.633,-1.403 2.34,-0.609 4.77,-1.269 7.078,-1.386 11.426,-0.641 22.25,6.519 27.555,10.718 2.312,1.828 4.621,3.989 6.855,6.078 3.461,3.243 7.039,6.59 10.836,8.981 4.641,2.211 10.266,3.293 17.2,3.293 8.597,0 17.718,-1.711 25,-3.082 3.898,-1.02 7.89,-1.539 11.867,-1.539 6.937,0 13.41,1.59 18.715,4.597 6.375,3.602 12.777,6.961 17.925,9.661 3.004,1.582 5.653,2.972 7.746,4.121 9.168,5.031 16.891,18.941 19.793,24.699 2.696,5.351 7.336,16.961 7.379,17.082 l 0.215,0.527 -10.664,8.153 -0.437,-0.743 c -0.071,-0.097 -7.051,-11.628 -11.59,-16.957 -18.782,-25.601 -49.41,-28.89 -73.973,-28.89 -1.703,0.058 -3.391,0.09 -5.082,0.09 -30.437,0 -54.961,-10.211 -72.887,-30.371 -0.843,-0.95 -2.289,-1.09 -2.914,-0.301 -0.379,0.48 -0.472,1.261 -0.254,2.191 0.5,2.11 0.707,2.719 2.004,5.059 19.071,27.043 51.574,31.051 77.797,31.531 19.375,1.289 33.473,4.648 45.723,10.898 15.719,7.993 27.363,25.711 31.929,39.704 3,9.207 4.465,19.039 5.887,28.527 1.121,7.551 2.289,15.351 4.199,22.512 0.336,1 1.34,1.531 2.161,1.531 0.218,0 0.421,-0.031 0.769,-0.152 0.996,-0.168 2.875,-0.899 2.891,-2.36 -2.641,-14.871 -6.258,-35.23 0.547,-52.23 3.156,-6.739 9.902,-10.008 20.629,-10 6.492,0 13.574,1.109 20.429,2.191 5.301,0.828 10.305,1.617 14.637,1.828 1.801,0.16 3.66,0.231 5.539,0.231 8.535,0 16.773,-1.649 24.742,-3.258 6.953,-1.391 14.145,-2.84 21.524,-3.192 1.312,-0.07 2.718,-0.179 4.183,-0.289 2.555,-0.211 5.196,-0.421 7.883,-0.421 6.234,0 10.645,1.23 13.871,3.851 2.262,1.848 1.465,4.59 0.469,8.07 l -0.18,0.618 c -0.172,0.601 -0.371,1.25 -0.59,1.961 -1.433,4.601 -3.601,11.562 0.028,14.761 0.504,0.399 1.281,0.668 1.976,0.668 0.614,0 1.399,-0.187 1.676,-1.109 0.406,-1.32 0.793,-2.66 1.172,-4.008 1.582,-5.562 3.219,-11.32 6.797,-16.242 7.461,-9.551 19.043,-18.59 33.422,-26.11 9.234,-6.378 20.422,-17.121 21.3,-32.082 0,-6.789 -6.578,-11.519 -11.468,-14.457 -7.703,-3.851 -19.821,-8.511 -27.16,-8.152 -4.922,0.242 -9.008,3.383 -9.293,3.633 -7.508,6.898 -6.657,9.269 -11.551,17.469 -2.598,4.359 -5.285,8.859 -8.672,12.828 -4.68,5.191 -10.563,7.16 -18.5,6.519 -7.656,-0.617 -14.707,-2.039 -23.125,-3.847 -1.754,-0.371 -3.086,-1.403 -3.762,-2.891 -0.746,-1.66 -0.586,-3.68 0.449,-5.52 4.344,-7.75 8.575,-14.851 13.051,-22.359 l 1.996,-3.351 c 1.09,-1.829 3.367,-2.059 5.231,-2.059 1.019,0 2.14,0.078 3.312,0.16 1.246,0.078 2.528,0.168 3.805,0.168 3.887,0 6.351,-0.91 7.945,-2.898 1.336,-2.039 2.555,-4.25 3.742,-6.391 2.922,-5.27 5.942,-10.719 10.997,-14.609 4.605,-4.059 11.246,-6.391 18.207,-6.391 3.066,0 6.043,0.449 8.835,1.332 20.094,6.297 39.676,12.777 58.282,22.738 l 6.105,0.012 c 1.356,0.137 2.731,0.238 4.11,0.34 6.433,0.476 13.086,0.969 17.796,5.93 5.981,8.687 11.071,17.378 15.555,26.57 4.035,8.258 4.07,16.308 0.098,22.668 -11.856,18.969 -13.957,23.961 -18.813,36.898 l -0.133,0.352 -0.367,0.109 c -1.41,0.422 -2.8,0.973 -4.148,1.5 -2.914,1.153 -5.934,2.332 -9.422,2.332 l -0.457,-0.011 c -4.07,-0.122 -6.824,-1.391 -7.957,-3.668 l -0.176,-0.34 21.512,-42.461 c 1.383,-3.332 2.965,-6.68 2.14,-11.641 -0.832,-4.961 -11.406,-21.539 -14.566,-23.672 -0.785,-0.519 -1.394,-0.777 -1.863,-0.777 -0.262,0 -1.375,0.219 -0.641,2.719 2.008,6.871 4.52,23.082 3.848,28.289 -0.774,6.011 -18.789,35.863 -19.559,37.133 l -0.324,0.519 c -2.785,4.539 -5.664,9.231 -5.41,14.758 0,2.531 2.34,4.301 4.058,4.941 3.137,1.18 6.102,1.629 9.325,2.34 7.656,1.68 15.57,3.43 18.39,7.711 8.629,13.109 13.762,26.777 17.149,45.699 0.148,0.84 0.742,2.418 1.941,2.418 0.703,-0.008 1.399,-0.238 1.684,-1.867 3.156,-17.91 -1.133,-36.723 -11.766,-51.609 -0.609,-0.852 -1.07,-2.543 -0.758,-4.102 0.25,-1.531 1.961,-2.75 1.961,-2.75 4.156,-2.808 19.227,-1.199 30.16,4.551 8.344,-0.172 16.235,1.309 23.844,2.75 2.426,0.449 4.817,0.898 7.199,1.289 0.758,-0.441 1.348,-1.102 1.5,-1.648 -6.406,-7.262 -10.336,-15.391 -12.347,-25.571 -1.774,-1.82 -3.758,-3.633 -5.672,-5.383 -7.02,-6.418 -14.582,-13.589 -14.938,-22.789 0,0 -0.218,-3.289 3.34,-3.558 1.129,-0.082 2.391,0.508 3.602,1.008 1.312,0.531 2.695,1.07 3.711,0.929 1.156,-0.187 1.961,-1.09 2.05,-2.258 l -7.988,-11.718 c -3.012,-4.891 -1.738,-10.102 -0.508,-15.153 0.895,-2.789 0.489,-4.968 1.246,-7.398 1.997,-5.852 9.122,-8.629 14.813,-8.629 10.449,0.469 19.941,3.887 29.117,7.219 1.637,0.59 3.27,1.179 4.949,1.769 10.059,4.34 23.504,5.262 39.493,2.641 12.859,0.82 22.527,9.301 31.867,17.57 3.984,-0.109 8.152,-2.48 12.402,-7.051 13.895,-14.921 30.941,-22.179 52.129,-22.179 0.781,0 1.57,0.008 2.398,0.031 l 2.153,0.156 c 2.203,0.524 2.781,1.614 2.902,2.973 0.152,1.668 -1.133,3.277 -3.5,4.43 l -11.855,6.289 c -9.465,6.031 -19.813,13.269 -22.657,22.832 -3.086,10.168 -8.8,20.558 -13.058,27.488 -0.836,1.359 -1.766,2.68 -2.746,4.102 -1.68,2.398 -3.414,4.898 -4.617,7.488 l 0.046,0.051 c 12.93,-4.641 20.149,-14.192 28.864,-30.102 6.476,-11.828 23.359,-24.609 39.332,-24.609 2.093,0 4.152,0.23 6.105,0.66 1.731,0.379 2.844,1.441 3.074,2.922 0.2,1.297 0.039,2.539 -1.441,3.277" /><path
         id="path36"
         style="fill:#d81144;fill-opacity:1;fill-rule:nonzero;stroke:none"
         d="m 1213.07,581 c -0.95,1.16 -2.86,1.332 -3.93,1.332 -0.45,0 -0.91,-0.031 -1.32,-0.094 -3.29,-0.418 -6.3,-0.609 -9.44,-0.609 -1.78,0 -3.36,0.07 -4.83,0.133 -1.28,0.039 -2.49,0.078 -3.66,0.078 -1.94,0 -3.51,-0.121 -5.09,-0.418 l -0.36,-0.051 -0.17,-0.32 c -0.27,-0.449 -6.34,-11.102 -5.51,-17.77 0.87,-7.242 8.28,-8.73 13.86,-9.851 2,-0.399 4.32,-0.828 6.65,-0.828 3.98,0 6.67,1.32 8,4.007 3.34,8.653 5.32,15.75 6.25,22.289 0.21,1.024 -0.13,1.704 -0.45,2.102" /><path
         id="path38"
         style="fill:#d81144;fill-opacity:1;fill-rule:nonzero;stroke:none"
         d="m 1613.53,557.059 c -3.47,5 -9.54,9.031 -14.41,12.273 -2.24,1.5 -4.19,2.789 -5.55,3.957 l -0.98,0.723 c -1.13,0.957 -2.46,1.449 -3.96,1.449 -5.46,0 -11.45,-6.57 -11.57,-8.852 -0.18,-3.308 4.53,-9.168 10.69,-16.48 l 1.32,-1.578 c 3.11,-3.699 6.48,-5.699 10,-5.949 h 0.06 c 3.58,0 6.4,1.199 9.42,4 2.24,2.07 7.2,7.25 4.98,10.457" /><path
         id="path40"
         style="fill:#d81144;fill-opacity:1;fill-rule:nonzero;stroke:none"
         d="m 1639.17,514.371 c -0.92,1.988 -1.8,3.859 -2.11,5.188 -0.54,2.441 -0.86,5.031 -1.17,7.531 -0.51,4.031 -0.99,7.84 -2.24,10.789 -1.52,3.531 -5.67,6.211 -9.66,6.211 -1.4,0 -2.75,-0.32 -4,-0.942 -6.03,-3.007 -9.59,-6.218 -8.61,-13.007 3.28,-9.871 4.95,-17 7.12,-26.7 0.26,-1.5 1.26,-6.371 3.6,-6.371 0.17,0 0.34,0.032 0.53,0.078 l 17.28,5.684 c 0.88,0.27 1.5,0.797 1.84,1.566 1.01,2.293 -0.81,6.192 -2.58,9.973" /><path
         id="path42"
         style="fill:#d81144;fill-opacity:1;fill-rule:nonzero;stroke:none"
         d="m 1136.91,825.73 c -2.48,-2.363 -5.05,-4.714 -7.68,-7.109 -9.18,-8.367 -18.66,-17.031 -24.91,-26.824 -2.96,-4.024 -5.13,-8.637 -7.24,-13.106 -0.23,-0.461 -0.74,-1.484 -1.78,-1.484 -0.47,0 -0.92,0.223 -1.37,0.66 -1.78,1.789 -0.31,14.113 1.98,20.285 5.06,13.692 16.58,28.008 31.62,39.278 1.58,1.008 3.63,1.593 5.55,1.593 2.85,0 5,-1.289 5.9,-3.546 1.86,-3.016 1.15,-6.524 -2.07,-9.747 z M 1028.6,673.582 c -1.44,-1.91 -3.7,-3.293 -5.87,-2.211 -2.03,0.731 -3.87,3.348 -5.01,5.367 -1.41,2.524 -2.56,4.711 -5.92,4.453 -0.25,0.008 0,0 -0.52,-0.05 -2.97,-0.25 -5.2,-1.711 -7.54,-3.52 -1.2,-0.922 -5.935,-4.48 -7.127,-5.48 -6.425,-5.43 -12.902,-11.032 -14.457,-18.661 -0.664,-2.742 -0.664,-2.742 -0.894,-4.05 -0.461,-2.66 -0.949,-5.418 -3.188,-6.84 l -0.191,-0.09 c -0.324,-0.09 -0.656,-0.141 -0.988,-0.141 -0.965,0 -1.973,0.391 -2.762,1.071 -0.813,0.699 -1.32,1.402 -1.34,2.558 -1.152,13.102 3.32,24.891 12.473,33.231 5.957,4.871 10.742,11.019 15.374,16.961 2.25,2.902 4.59,5.898 7.01,8.664 1.84,1.844 4.83,0.261 9.79,-5.125 2.08,-2.27 8.55,-13.258 11.5,-20.508 1.09,-3.199 -0.34,-5.629 -0.34,-5.629 z m -5.66,-90.742 c -1.03,-1.828 -3.43,-2.871 -6.59,-2.871 -2.77,0 -5.71,0.82 -7.48,2.082 -4.13,2.929 -6.52,7.859 -6.9,14.258 -0.08,1.461 -0.16,2.98 1.83,4.492 1.02,0.59 1.56,0.59 2.76,0.59 3.93,0 10.24,-2.52 13.61,-6.61 0.24,-0.312 5.46,-7.222 2.77,-11.941 z m 585.71,-82.219 c -1.27,10.391 -4.04,20.149 -8.71,30.699 l -0.22,0.489 -0.52,-0.028 c -10,-0.621 -16.22,7.5 -22.21,15.309 -1.98,2.59 -3.85,5.031 -5.83,7.14 -3.11,3.61 -6.55,6.641 -9.6,9.29 -3.5,3.089 -6.54,5.761 -7.71,8.191 -1.43,2.937 -2.96,8.59 -4.45,14.059 -1.06,3.929 -2.07,7.628 -2.97,10.14 -0.21,0.5 -0.4,1.039 -0.6,1.59 -1.81,4.82 -4.03,10.832 -10.27,11.871 -3.16,0.508 -6.52,0.66 -9.78,0.789 -9.03,0.391 -18.1,1.981 -22.77,8.442 -4.31,5.957 -2.52,11.48 -0.11,17.367 1.06,2.582 1.82,4.793 2.44,7.281 3.25,10.891 4.35,24.441 1.9,33.961 -0.39,1.519 -0.89,3.039 -1.39,4.508 -1.32,3.961 -2.85,9.961 -1.86,11.801 0.99,1.839 2.04,2.152 3.84,2.152 1.59,0 3.39,-0.524 5.13,-1.012 1.23,-0.351 2.19,-0.531 3.33,-0.801 4.5,-1.089 11.18,-2.308 17.32,-2.308 10.17,0 20.81,2.168 30.01,6.129 17.39,8.453 34.54,27.504 33.68,51.05 -2.28,23.875 -17.05,46.942 -45.14,70.536 -0.68,0.586 -1.4,1.172 -2.12,1.769 -3.66,3.016 -8.06,6.817 -8.17,10.223 -0.13,3.39 8.64,5.441 14.16,6.699 1.27,0.293 2.43,0.559 3.38,0.801 l 1.43,0.371 c 7,1.836 14.24,3.723 20.18,7.851 20.04,13.477 19.3,37.262 17.05,50.352 -0.11,0.328 -0.2,0.766 -0.31,1.246 -0.37,1.715 -0.83,3.848 -2.4,3.848 -0.49,0 -0.98,-0.235 -1.5,-0.715 -0.6,-0.547 -1.2,-1.117 -1.82,-1.707 -2.28,-2.172 -4.86,-4.637 -7.79,-6.309 -6.37,-3.754 -14.03,-5.355 -21.43,-6.906 -4.7,-0.988 -9.58,-2.004 -14.12,-3.574 -19.94,-6.867 -32.3,-16.965 -36.76,-30.016 -2.29,-6.773 -1.08,-15.347 3.38,-23.562 6.52,-10.301 15.95,-19.344 25.07,-28.074 14.38,-13.77 29.24,-28.008 32.68,-47.344 1.88,-11.262 -2.71,-20.742 -13.97,-28.965 -5.88,-3.566 -13.42,-5.449 -21.81,-5.449 -10.28,0 -21.37,2.781 -30.44,7.644 -11.67,5.832 -22.94,13.371 -33.85,20.664 -16.4,10.957 -33.35,22.297 -52.15,28.282 -8.16,3.691 -17.21,5.527 -25.95,7.296 -12.44,2.52 -25.3,5.125 -35.59,13.192 -3.54,2.316 -7.06,4.863 -10.46,7.324 -9.37,6.77 -19.05,13.77 -30,16.555 -4.08,1.394 -8.1,1.972 -11.97,2.519 -5.99,0.86 -11.65,1.668 -16.83,5.371 -2.35,1.68 -4.71,3.407 -7.08,5.145 -8.72,6.379 -17.74,12.98 -26.75,17.48 -15.48,7.735 -32.02,11.711 -50.46,15.735 -5.9,1.394 -9.56,5.855 -13.44,10.574 -2.59,3.168 -5.28,6.445 -8.7,8.754 -14.23,11.269 -27.11,18.777 -43.71,18.777 -1.54,0 -3.11,-0.066 -4.68,-0.191 -8.7,-0.586 -17.22,-7.199 -22.88,-12.125 -16.59,-14.52 -34.41,-27.434 -51.65,-39.903 -25.68,-18.593 -52.24,-37.812 -74.927,-62.605 -22.328,-23.027 -30.441,-51.828 -38.3,-79.68 -1.164,-4.101 -2.325,-8.211 -3.528,-12.304 -2.109,-7.598 -4.062,-15.43 -5.949,-23.02 -10.223,-41.078 -20.816,-82.09 -61.851,-108.738 -2.7,-1.75 -1.75,-5.192 0.789,-6.153 1.093,-0.41 20.656,-6.277 35.421,11.032 10.711,12.57 16.133,24.691 28.543,37.992 0.422,0.41 1.856,1.769 3.02,1.43 0.859,-0.27 1.238,-0.762 0.84,-2.293 -1.43,-5.34 -4.848,-9.989 -8.012,-14.528 -3.219,-4.633 -6.551,-9.422 -8.199,-14.922 -3.93,-11.777 -14.934,-21.308 -24.641,-29.711 0,0 -1.535,-1 -2.441,-2.128 -0.899,-1.122 -0.86,-1.61 -0.86,-1.61 -0.273,-2.609 1.79,-4.199 5.938,-4.371 v 0 c 23.008,0 39.363,16.352 55.176,32.18 0.683,0.679 1.523,1 2.644,1 0.832,0 1.45,0.113 2.532,-0.418 1.066,-0.531 3.488,-2.922 5.343,-4.59 5.172,-4.609 10.528,-9.379 17.442,-10.801 l 0.125,-0.031 0.136,0.019 c 8.379,1.161 15.949,2.133 23.699,2.133 2.22,0 4.37,-0.09 6.25,-0.222 8.4,-2.52 16.77,-5.688 24.87,-8.739 5.73,-2.148 11.64,-4.379 17.55,-6.39 l 0.15,-0.039 h 0.14 c 7.65,0.281 13.16,7.418 17.17,13.718 1.87,4.45 0.98,8.852 0.12,13.11 -0.52,2.613 -1.03,5.101 -0.91,7.543 1.43,0.726 3.34,0.59 5.43,0.277 1.82,-0.277 4.5,0 5.39,0.121 2.01,0.289 4.13,2.621 3.52,5.629 -1.52,7.68 -5.36,12.402 -9.19,18.301 -3.36,5 -6.52,9.719 -8.14,15.058 -2.55,7.024 -7.9,12.852 -13.08,18.481 -6,6.531 -11.67,12.711 -13.35,20.582 0,0 -0.55,1.668 0.07,2.277 0.6,0.602 2.2,-0.109 2.2,-0.109 2.74,-2.008 5.51,-4.27 8.2,-6.457 8.72,-7.082 17.72,-14.41 28.68,-16.063 10.22,-1.019 21.38,-2.277 32.29,-1.379 2.88,0.481 4.34,2.989 3.63,5.442 -4.35,9.199 -8.82,19.09 -11.58,29.887 -2.33,8.132 -7.41,29.539 -2.21,45.671 0.51,1.571 1.58,2.118 2.52,2.118 0.11,0 0.21,-0.008 0.38,-0.067 1.76,-0.441 2.97,-2.511 3.21,-4.179 l 0.16,-2.102 c 1.53,-21.98 2.99,-42.75 16.45,-60.441 3.58,-5.688 8.73,-8.739 13.7,-11.688 3.43,-2.039 7.35,-3.812 9.85,-6.992 2.8,-3.57 3.32,-9.719 1.34,-13.457 l -16.49,-24.32 c -3.88,-5.551 -7.66,-11.52 -9.04,-17.59 -1.23,-6.141 -0.7,-12.09 -0.2,-17.84 l 0.12,-1.391 c -0.37,0.16 -0.82,0.629 -1.21,1.328 -6.66,12.051 -8,22.231 -4.62,30.039 2.2,5.082 15.61,24.102 19.53,30.364 1.26,1.976 2.28,4 1.2,5.379 -1.3,1.691 -11.39,6.031 -14.02,6.031 -0.2,0 -0.38,-0.031 -0.53,-0.063 -2.36,-0.679 -3.88,-2.847 -5.22,-4.757 -0.28,-0.411 -0.58,-0.821 -0.92,-1.301 l -20.33,-36.903 -0.45,-1.386 c -1.19,-3.692 -2.21,-6.883 -1.2,-11.16 1.1,-5.551 2.85,-11.493 4.13,-15.832 0.35,-1.2 0.69,-2.411 1.03,-3.629 1.81,-6.391 3.52,-12.442 6.36,-15.77 1.8,-2.101 4.04,-3.07 7.02,-3.07 1.53,0 3.12,0.238 4.65,0.48 2.54,0.399 5.29,0.707 7.38,0.18 3.07,-0.762 5.19,-3.039 7.42,-5.449 2.24,-2.41 4.56,-4.91 7.94,-5.903 6.29,-2.097 12.88,-3.82 19.25,-5.48 8.51,-2.238 17.3,-4.539 25.64,-7.789 4.73,-1.52 9.78,-2.949 14.69,-2.93 5.42,0.02 8.76,1.512 13.5,5.34 6.63,5.359 8.77,10.68 10.41,18.309 1.33,7.023 3.64,7.5 8.73,7.793 2.45,0.117 2.85,0.027 5.25,0.82 2.53,0.84 9.89,9.848 13.72,17.226 1.04,2.032 2.19,3.84 3.24,5.422 1.14,1.719 1.63,3.211 1.61,4.668 -0.05,3.633 -3.06,4.801 -5.02,4.864 l -1.28,0.039 c 0,0 -21.72,0.109 -27.66,0 -8.91,-0.493 -12.82,-9.059 -15.93,-16.629 -1.21,-2.922 -2.35,-5.68 -3.86,-8.102 -2.34,-4.262 -6.94,-6.871 -12.63,-6.711 -1.64,0.051 -5.31,1.012 -7.19,1.461 -11.72,2.899 -23.84,5.871 -28.77,17.488 -0.46,2.012 -1.26,6.153 1.73,9.602 6.27,7.262 14.52,16.449 22.99,23.039 11.77,2.473 23.56,11.172 30.04,22.18 1.33,1.883 2.05,4.101 2.75,6.25 1.07,3.301 2.08,6.422 5.09,8.371 1.9,0.961 3.43,0.621 3.84,-1.031 1.12,-6.098 -1.2,-12.008 -3.45,-17.727 -0.51,-1.301 -1.01,-2.57 -1.47,-3.812 l -0.32,-0.93 0.98,-0.102 c 3.23,-0.316 6.59,-0.488 9.97,-0.488 12.06,0 23.59,2.082 34.73,4.09 11.04,1.98 22.44,4.039 34.27,4.039 1.25,0 2.52,-0.02 3.82,-0.07 5.23,0 10.34,-0.469 15.28,-0.911 4.84,-0.429 9.83,-0.867 14.83,-0.867 1.78,0 3.44,0.039 5.08,0.16 15.09,0.688 26.07,7.547 29.35,18.36 3.12,9.23 2.79,25.219 -1,47.508 -0.18,1.07 -0.3,1.75 -0.31,1.89 0.01,0.121 0.01,0.27 0.02,0.43 0.02,0.832 0.04,1.68 1.1,2.25 1.39,0.73 2.89,0 3.61,-1.809 5.74,-16 9.03,-34.48 10.78,-47.172 1.93,-12.328 7.1,-24.796 15.8,-38.16 10.82,-16.109 28.59,-25.359 48.78,-25.359 4.71,0 9.42,0.883 14.1,1.512 3.26,0.429 4.46,0.25 6.65,0.25 25.69,0 48.06,-11.129 64.72,-32.211 0,0 0.31,-0.379 0.27,-1.02 -0.06,-0.879 -1.31,-1.75 -2.44,-1.281 l -2.19,1.691 c -14.49,11.231 -29.49,22.84 -48.28,25.16 -3.34,0.61 -6.82,0.899 -10.61,0.899 -5.43,0 -10.77,-0.609 -15.93,-1.199 -5.17,-0.598 -10.04,-1.16 -15.01,-1.16 -6.43,0 -11.83,0.96 -17.01,3.05 -21.64,7.121 -39.3,32.012 -44.96,47.461 -0.25,0.539 -1.02,1.449 -2.27,1.449 -0.58,0 -1.19,-0.199 -1.81,-0.589 -2.51,-1.571 -2.94,-2.422 -3.31,-3.981 -0.33,-1.289 1.77,-12.379 2.7,-17.121 2.83,-11.801 4.77,-25.668 22.24,-37.019 11.56,-7.489 14.96,-10.45 27.71,-12.372 2.16,-0.328 7.51,-0.148 9.62,0.434 5.46,1.199 11.09,1.797 16.74,1.797 17.79,0 35.92,-6.07 51.13,-17.149 2.56,-1.441 4.95,-3.46 7.25,-5.421 3.29,-2.77 6.66,-5.629 10.68,-7.079 2.52,-1.019 5.25,-1.519 8.12,-1.539 6.9,-0.05 8.64,2.079 13.56,4.481 2.17,1.066 4.35,1.437 5.76,1.437 5.54,0 8.61,-4.32 12.5,-9.777 2.34,-3.281 4.99,-7 8.58,-10.273 5.04,-4.879 11.99,-5.508 17.47,-5.508 2.98,0 6.02,0.219 8.97,0.429 2.84,0.2 6.26,0.27 8.05,0.469 1.78,0.223 2.75,0.473 2.75,0.473 l -0.09,0.699" /><path
         id="path44"
         style="fill:#ffffff;fill-opacity:1;fill-rule:nonzero;stroke:none"
         d="m 674.473,887.277 c 0,85.743 69.504,155.253 155.238,155.253 85.75,0 155.25,-69.51 155.25,-155.253 0,-85.746 -69.5,-155.257 -155.25,-155.257 -85.734,0 -155.238,69.511 -155.238,155.257" /><path
         id="path46"
         style="fill:#d2d3d1;fill-opacity:1;fill-rule:nonzero;stroke:none"
         d="m 713.043,803.523 c 45.258,-32.695 109.07,-37.878 158.941,-11.074 54.188,28.039 86.981,85.793 82.008,148.063 -0.957,9.031 -2.398,17.82 -4.762,26.375 15.301,-23 24.098,-50.278 24.098,-79.61 0,-79.308 -64.297,-143.605 -143.617,-143.605 -48.059,0 -90.606,23.601 -116.668,59.851" /><path
         id="path48"
         style="fill:#0e1e3d;fill-opacity:1;fill-rule:evenodd;stroke:none"
         d="m 787.367,851.395 c -33.554,8.105 -56.484,16.23 -56.484,16.23 -3.633,34.672 -0.555,64.859 -0.555,64.859 14.527,7.567 53.949,25.176 53.949,25.176 18.746,-21.265 36.637,-49.765 36.637,-49.765 -8.668,-16.793 -33.547,-56.5 -33.547,-56.5 z m -55.344,141.14 c -3.371,-5.496 -13.238,-22.086 -22.113,-41.867 -8.39,-10.484 -15.699,-21.152 -18.844,-25.844 7.118,26.34 21.543,49.68 40.957,67.711 z m 150.692,-83.527 c 0,0 12.578,26.269 27.676,47.527 0,0 29.093,-13.695 42.785,-24.887 0,0 5.027,-15.648 1.679,-61.503 0,0 -17.355,-10.079 -42.5,-16.231 0,0 -17.062,28.809 -29.64,55.094 z m -65.156,-107.653 62.082,1.672 12.011,-33.828 c -23.468,-13.976 -51.718,-21.261 -51.718,-21.261 -29.645,6.445 -46.692,19.304 -46.692,19.304 z m 12.152,229.535 c 18.949,0 37.027,-3.67 53.582,-10.34 -0.578,-2.65 -2.598,-10.23 -8.41,-19.84 -29.922,3.92 -63.192,0.84 -63.192,0.84 l -27.652,21.92 c 14.352,4.81 29.711,7.42 45.672,7.42 z M 737.699,777.012 c -23.793,19.871 -41.054,47.312 -48.09,78.613 7.68,-7.961 22.547,-23.234 22.547,-23.234 8.949,-18.465 31.305,-50.614 31.305,-50.614 -1.602,-1.777 -4.125,-3.644 -5.762,-4.765" /><path
         id="path50"
         style="fill:#0e1e3d;fill-opacity:1;fill-rule:evenodd;stroke:none"
         d="m 579.094,174.988 58.851,-28.379 28.383,58.832 -19.613,9.469 -18.926,-39.238 -19.621,9.476 81.836,169.641 -19.621,9.473 z m 148.972,94.602 21.442,-3.86 7.719,42.879 20.871,-3.75 -71.817,-156.398 -3.859,-21.461 64.336,-11.559 11.578,64.321 -21.445,3.859 -7.727,-42.902 -20.859,3.769 71.816,156.41 3.863,21.442 -64.351,11.582 z m -134.996,117.969 17.129,-13.477 -44.797,-56.91 -17.125,13.457 z m -133.66,-134.618 17.129,-13.492 58.266,74.039 17.125,-13.468 -58.27,-74.032 17.121,-13.468 110.895,140.921 c 11.101,14.118 8.64,34.778 -5.469,45.868 -14.113,11.121 -34.797,8.66 -45.902,-5.457 z m 410.024,-140.23 43.269,5.18 c 11.985,1.429 20.492,12.23 19.035,24.218 l -7.547,63.442 c -1.543,12.871 -6.449,16.73 -11.953,18.148 4.918,3.539 8.836,7.86 7.657,17.801 l -7.872,66.082 c -1.437,11.988 -12.218,20.477 -24.203,19.047 l -43.277,-5.16 z m -0.696,189.699 21.653,2.59 8.574,-71.941 -21.629,-2.547 z m 11.164,-93.531 21.641,2.57 8.586,-71.929 -21.652,-2.579 z m 119.075,154.41 -20.227,-8.09 69.97,-174.949 -20.21,-8.078 -69.994,174.93 -20.215,-8.09 66.569,-166.461 c 6.67,-16.68 25.8,-24.879 42.48,-18.211 16.69,6.66 24.87,25.789 18.21,42.469 z m 150.313,-152.68 17.64,12.75 -55.11,76.422 17.67,12.75 45.99,-63.769 c 3.11,-4.301 8.47,-7.692 12.96,-9.903 l 18.14,13.102 c -5.48,2.559 -10,4.789 -13.42,9.539 l -41,56.852 c -7.58,10.507 -13.74,11.507 -19.25,10.078 2.58,5.492 3.93,11.16 -1.92,19.281 l -38.93,53.969 c -7.07,9.8 -20.62,11.992 -30.43,4.949 l -35.36,-25.508 z m -92.58,165.59 17.67,12.731 42.37,-58.731 -17.67,-12.75 z m 180.17,-41.687 c 14.12,-11.102 34.77,-8.614 45.89,5.476 11.09,14.114 8.64,34.774 -5.48,45.91 l -66.87,52.602 -19.31,-24.531 17.12,-13.469 5.84,7.41 56.92,-44.801 -13.47,-17.129 -130.99,103.079 13.49,17.113 25.91,-20.391 13.47,17.129 -18.73,14.75 c -14.12,11.09 -34.78,8.621 -45.91,-5.48 -11.1,-14.121 -8.63,-34.789 5.49,-45.899 z M 556.238,464.559 c 5.805,-11.95 2.707,-28.098 -6.261,-37.5 l -22.926,-18.477 -13.363,17.309 c 8.125,7.519 17.597,13.898 26.253,21.14 l -13.086,17.301 -57.777,-44.383 c 6.863,-12.5 22.039,-22.719 16.199,-38.789 l -1.164,-5.461 -61.742,-47.597 c -8.058,-4.493 -19.051,-4.821 -27.769,-1.321 -10.348,4.039 -18.364,14.649 -20.071,25.11 -1.937,12.418 2.426,24.121 11.938,32.441 6.422,5.09 13.121,9.898 19.558,15.227 4.813,-5.579 9.086,-11.707 13.352,-17.84 -8.387,-6.981 -17.305,-13.379 -25.965,-20.328 l 12.809,-17.582 c 19.257,14.171 38.523,29.679 58.07,44.66 -7.969,13.082 -25.27,26.062 -14.484,42.883 l 4.781,5.648 56.109,42.781 c 8.903,5.59 22.621,5 31.586,-0.109 5.695,-3.41 11.324,-9.32 13.953,-15.113" /><path
         id="path52"
         style="fill:#ffffff;fill-opacity:1;fill-rule:nonzero;stroke:none"
         d="M 998.527,1578.46 H 872.813 l -40.594,121.89 -40.563,-121.89 H 665.922 l 103.086,-72.34 -38.367,-120.45 101.582,74.11 101.597,-74.11 -38.379,120.45 103.086,72.34" /><path
         id="path54"
         style="fill:#fbc715;fill-opacity:1;fill-rule:nonzero;stroke:none"
         d="m 832.223,1476.78 75.757,-55.27 -28.695,90.05 75.785,53.17 h -92.168 l -30.679,92.15 -30.664,-92.15 h -92.168 l 75.761,-53.17 -28.687,-90.05 75.758,55.27" /><path
         id="path56"
         style="fill:#fbc715;fill-opacity:1;fill-rule:nonzero;stroke:none"
         d="m 832.223,1476.78 75.757,-55.27 -28.695,90.05 75.785,53.17 h -92.168 l -30.679,92.15 -30.664,-92.15 h -92.168 l 75.761,-53.17 -28.687,-90.05 75.758,55.27" /></g></g></svg>